<svg id="Capa_1" enable-background="new 0 0 512 512" height="512" viewBox="0 0 512 512" width="512" xmlns="http://www.w3.org/2000/svg"><g><path d="m256 420.203c12.437 0 22.556-10.119 22.556-22.556s-10.119-22.555-22.556-22.555-22.555 10.118-22.555 22.555 10.118 22.556 22.555 22.556zm0-30.111c4.166 0 7.556 3.389 7.556 7.555s-3.39 7.556-7.556 7.556-7.555-3.39-7.555-7.556 3.389-7.555 7.555-7.555z"/><path d="m271.432 231.206c-3.896 4.47-9.52 7.033-15.432 7.033s-11.537-2.563-15.432-7.033c-2.721-3.123-7.458-3.448-10.582-.727-3.123 2.721-3.448 7.458-.727 10.582 6.745 7.74 16.491 12.179 26.741 12.179s19.996-4.439 26.74-12.179c2.721-3.123 2.396-7.86-.727-10.582-3.122-2.722-7.86-2.397-10.581.727z"/><path d="m191.165 223.264c3.311 0 6.342-2.21 7.24-5.561 1.072-4.001-1.302-8.113-5.303-9.186l-30.821-8.258c-4.001-1.073-8.114 1.302-9.186 5.303s1.302 8.113 5.303 9.186l11.571 3.101c-.908 1.24-1.45 2.765-1.45 4.419v13.276c0 4.142 3.358 7.5 7.5 7.5s7.5-3.358 7.5-7.5v-13.276c0-.271-.016-.538-.044-.801l5.744 1.54c.651.173 1.304.257 1.946.257z"/><path d="m358.905 205.562c-1.072-4.001-5.184-6.375-9.186-5.303l-30.82 8.258c-4.001 1.072-6.375 5.185-5.304 9.186.898 3.351 3.928 5.561 7.24 5.561.643 0 1.296-.083 1.946-.257l5.744-1.54c-.028.263-.044.53-.044.801v13.276c0 4.142 3.358 7.5 7.5 7.5s7.5-3.358 7.5-7.5v-13.276c0-1.655-.542-3.179-1.45-4.419l11.571-3.101c4-1.073 6.374-5.185 5.303-9.186z"/><path d="m116.44 463.859c0 18.92 15.392 34.312 34.312 34.312h39.308c5.89 8.524 15.732 13.829 26.256 13.829h79.369c10.523 0 20.366-5.305 26.256-13.829h39.307c18.92 0 34.312-15.392 34.312-34.312 0-7.285-2.289-14.042-6.177-19.604-1.293-10.2-8.173-52.366-35.604-79.771 7.912-4.622 15.417-9.823 22.466-15.585 3.207-2.621 3.682-7.346 1.06-10.553-2.621-3.207-7.346-3.682-10.553-1.06-12.801 10.464-26.653 18.455-41.466 24.541-4.83-12.081-16.583-20.081-29.602-20.081h-79.369c-13.042 0-24.775 8.009-29.602 20.08-3.478-1.426-7.22-3.07-11.495-5.207-22.429-11.206-41.56-27.065-56.019-46.625-18.369-24.848-29.242-55.981-29.242-90.872 0-33.398 9.912-65.733 30.908-93.081 21.812-28.357 55.397-32.181 80.416-17.997 10.912 6.186 21.372 13.915 31.09 22.972 13.271 12.363 34.027 12.328 47.253-.001 6.076-5.662 12.441-10.805 19.024-15.376 4.654-3.231 11.185-7.369 16.298-9.772 20.25-9.515 43.772-7.173 61.734 5.725 20.361 14.643 45.359 56.29 45.359 107.53 0 18.476-3.036 35.683-8.416 51.275-.007.02-.011.041-.017.061-5.876 17.013-14.76 32.763-26.494 46.747-2.662 3.173-2.249 7.904.925 10.566 3.173 2.663 7.904 2.249 10.566-.924 11.612-13.839 20.689-29.234 27.104-45.783 1.276.094 2.554.157 3.831.157 28.741 0 52.123-23.382 52.123-52.123 0-14.996-6.374-28.524-16.545-38.042-4.446-54.961 2.6-103.608 9.376-134.954 2.971-13.743-.391-27.903-9.225-38.85-8.845-10.964-21.999-17.252-36.088-17.252h-346.358c-14.089 0-27.243 6.288-36.09 17.251-8.833 10.947-12.195 25.107-9.224 38.85 2.552 11.805 4.692 23.944 6.359 36.08.564 4.104 4.346 6.974 8.451 6.41 4.104-.564 6.973-4.347 6.409-8.451-1.719-12.513-3.925-25.031-6.558-37.208-2.008-9.289.265-18.86 6.236-26.261 5.986-7.417 14.885-11.671 24.417-11.671h346.358c9.532 0 18.431 4.254 24.416 11.671 5.972 7.401 8.245 16.972 6.237 26.261-6.522 30.168-13.292 75.875-10.444 127.976-5.741-2.361-11.434-3.539-17.414-3.875-5.795-23.352-16.461-44.827-31.621-63.526-23.642-29.154-64.833-36.765-97.032-18.515-5.374 3.047-10.636 6.448-15.771 10.149-6.266 4.515-12.339 9.484-18.153 14.902-7.478 6.969-19.251 7.036-26.799 0-14.872-13.86-35.803-29.13-55.79-33.295-13.824-2.89-28.761-1.992-42.959 3.435-22.575 8.63-36.4 25.833-48.133 46.887-11.447 20.605-15.11 38.135-15.693 39.961-5.844.332-11.35 1.448-16.926 3.688-.161.064-.324.122-.485.188 1.088-19.853.863-40.178-.677-60.611-.311-4.13-3.912-7.224-8.042-6.915-4.13.311-7.227 3.912-6.915 8.042 1.776 23.581 1.726 46.99-.109 69.646-10.163 9.518-16.531 23.04-16.531 38.029 0 30.036 25.55 54.218 55.983 51.964 5.213 13.459 12.178 26.163 20.817 37.85 13.609 18.41 30.962 33.814 51.096 45.565-26.987 26.989-34.122 68.474-35.574 79.717-3.913 5.573-6.22 12.353-6.22 19.665zm320.599-244.736c0-9.378-.812-19.133-2.003-26.729 18.317 2.77 31.625 18.464 31.625 36.704 0 20.092-16.046 36.507-35.996 37.105 4.03-14.329 6.374-30.208 6.374-47.08zm-391.7 9.975c0-18.366 13.476-33.986 31.623-36.703-1.3 8.628-2.003 17.504-2.003 26.728 0 16.426 2.272 32.445 6.392 47.081-19.958-.591-36.012-17.009-36.012-37.106zm282.218 147.993c.153-.06.303-.126.456-.186 3.985-1.552 7.895-3.229 11.723-5.034 14.936 13.119 23.485 31.788 28.102 45.608 1.645 4.921 2.915 9.577 3.89 13.695-3.44-1.1-7.194-1.627-10.48-1.627h-33.69v-52.456zm33.691 67.456h.004c10.637.008 19.307 8.655 19.307 19.312 0 10.649-8.663 19.312-19.312 19.312-11.037 0-39.634 0-50.938 0-10.648 0-19.312-8.664-19.312-19.312s8.664-19.312 19.312-19.312zm-161.805-70.928c0-9.237 7.578-16.874 16.873-16.874h79.369c9.313 0 16.873 7.662 16.873 16.874v55.928h-2.248c-18.92 0-34.312 15.392-34.312 34.312 0 .034.002.067.002.101.043 14.672 9.511 27.924 23.728 32.542-1.309.327-2.665.499-4.043.499h-79.369c-1.378 0-2.735-.172-4.043-.499 13.747-4.454 23.707-17.42 23.729-32.592 0-.017.001-.034.001-.051 0-18.919-15.392-34.312-34.312-34.312h-2.248zm-55.283 43.866c4.618-13.823 13.165-32.494 28.105-45.615 3.845 1.814 9.66 4.246 12.177 5.221v52.457h-33.69c-3.315 0-7.09.54-10.48 1.627.974-4.117 2.245-8.771 3.888-13.69zm6.587 27.062c3.355-.003-14.943 0 50.943 0 10.648 0 19.312 8.663 19.312 19.312s-8.663 19.312-19.312 19.312c-11.304 0-39.902 0-50.938 0-10.649 0-19.312-8.663-19.312-19.312 0-10.645 8.667-19.303 19.307-19.312z"/></g></svg>