<?xml version="1.0"?>
<svg xmlns="http://www.w3.org/2000/svg" viewBox="0 0 64 64" width="512" height="512"><g id="Layer_23" data-name="Layer 23"><path d="M62,19H35.38l.43-2H44a1,1,0,0,0,1-1V2a1,1,0,0,0-1-1H20a1,1,0,0,0-1,1V16a1,1,0,0,0,1,1h8.19l.43,2H2a1,1,0,0,0-1,1V46a1,1,0,0,0,1,1H30v1H21a1,1,0,0,0-.92.62,1,1,0,0,0,.21,1.09A14.54,14.54,0,0,0,30,54v2.41a4,4,0,1,0,6,0V54h2.38a4,4,0,1,0,0-6H36v-.34c0-.22,0-.44,0-.66H62a1,1,0,0,0,1-1V20A1,1,0,0,0,62,19ZM33,55a4.09,4.09,0,0,0-1,.14V40.82a12.6,12.6,0,0,1,2,6.84v7.48A4.09,4.09,0,0,0,33,55ZM31.71,37.29a1,1,0,0,0-1.09-.21A1,1,0,0,0,30,38v3H23V25h6.91L31,30.21a1,1,0,0,0,2,0L34.09,25H41V41H34.4A14.89,14.89,0,0,0,31.71,37.29ZM21,15V3H43V15H35a1,1,0,0,0-1,.79l-2,9.44-2-9.44A1,1,0,0,0,29,15ZM3,45V21H29.05l.43,2H22a1,1,0,0,0-1,1V42a1,1,0,0,0,1,1h8v2Zm20.82,5H30v2A12.58,12.58,0,0,1,23.82,50ZM33,61a2,2,0,1,1,2-2A2,2,0,0,1,33,61Zm8-12a2,2,0,1,1-2,2A2,2,0,0,1,41,49Zm-3.86,1a3.64,3.64,0,0,0,0,2H36V50ZM61,45H35.75a13.66,13.66,0,0,0-.52-2H42a1,1,0,0,0,1-1V24a1,1,0,0,0-1-1H34.52L35,21H61Z"/><path d="M18,23H6a1,1,0,0,0-1,1V42a1,1,0,0,0,1,1H18a1,1,0,0,0,1-1V24A1,1,0,0,0,18,23ZM17,41H7V25H17Z"/><path d="M46,43H58a1,1,0,0,0,1-1V24a1,1,0,0,0-1-1H46a1,1,0,0,0-1,1V42A1,1,0,0,0,46,43Zm1-18H57V41H47Z"/><path d="M29.45,12.89l6-3a1,1,0,0,0,0-1.78l-6-3A1,1,0,0,0,28,6v6a1,1,0,0,0,.47.85A1,1,0,0,0,29,13,1,1,0,0,0,29.45,12.89ZM30,7.62,32.76,9,30,10.38Z"/></g></svg>
