<?xml version="1.0" encoding="UTF-8"?>
<svg xmlns="http://www.w3.org/2000/svg" viewBox="0 0 64 64" width="512" height="512"><g id="classroom-student-desk-teacher-white_board" data-name="classroom-student-desk-teacher-white board"><path d="M61,2H3A1,1,0,0,0,2,3V7A1,1,0,0,0,3,8H4V35H3a1,1,0,0,0-1,1v4a1,1,0,0,0,1,1H7.12l.25,2H3a1,1,0,0,0-1,1v4a1,1,0,0,0,1,1H4V62H6V49h4v2H9a1,1,0,0,0-1,1v4a1,1,0,0,0,1,1h1v5h2V57h8v5h2V57h1a1,1,0,0,0,1-1V52a1,1,0,0,0-1-1H22V49h4V62h2V49h1a1,1,0,0,0,1-1V44a1,1,0,0,0-1-1H24.63l.25-2H42V60a1,1,0,0,0,1,1H55a1,1,0,0,0,1-1V41h3a1,1,0,0,0,1-1V8h1a1,1,0,0,0,1-1V3A1,1,0,0,0,61,2ZM4,47V45H7.62l.25,2Zm0-8V37h7v1a3,3,0,0,0,.18,1ZM22,55H10V53H22ZM12,51V49h8v2Zm10.12-4H9.88l-.75-6H22.87ZM13,38V34a1,1,0,0,1,1-1h4a1,1,0,0,1,1,1v4a1,1,0,0,1-1,1H14A1,1,0,0,1,13,38Zm15,7v2H24.13l.25-2Zm14-6H20.82A3,3,0,0,0,21,38V37H42ZM54,59H50V43H48V59H44V41H54Zm0-20H44V37H54Zm4,0H56V30H54v5H44V31a1,1,0,0,0-1-1H37.33l-6.81-5.11,1.59-1.58,6.31,4.5A1,1,0,0,0,39,28h2a1,1,0,0,0,1-1,1,1,0,0,1,1-1H55a3.009,3.009,0,0,1,3,3ZM50.73,19.96A.842.842,0,0,0,51,20a.967.967,0,0,0,.55-.17L53,18.87V21a3.009,3.009,0,0,1-3,3H48a3.009,3.009,0,0,1-3-3V18.33ZM45.1,16.27A3,3,0,0,1,48,14h2a3,3,0,0,1,2.95,2.5l-2.12,1.41ZM58,25.03A4.924,4.924,0,0,0,55,24H53.97A4.924,4.924,0,0,0,55,21V17a5,5,0,0,0-5-5H48a5,5,0,0,0-5,5v4a4.924,4.924,0,0,0,1.03,3H43a3.014,3.014,0,0,0-2.83,2h-.85l-6.74-4.81a1,1,0,0,0-1.29.1l-.79.8L19.71,11.29l-1.42,1.42L29.09,23.5l-.8.79a1.03,1.03,0,0,0-.29.78,1,1,0,0,0,.4.73l8,6a.984.984,0,0,0,.6.2h5v3H21V34a3.009,3.009,0,0,0-3-3H14a3.009,3.009,0,0,0-3,3v1H6V8H58ZM60,6H4V4H60Z"/></g></svg>
